<svg width="604" height="251" viewBox="0 0 604 251" fill="none" xmlns="http://www.w3.org/2000/svg">
<path d="M63.68 140V39.344H80.528L79.808 125.168L117.104 124.736V140H63.68ZM130.45 42.8V28.976H149.026V42.8H130.45ZM131.314 140V55.76H148.018V140H131.314ZM198.095 142.016C193.583 142.016 189.647 141.296 186.287 139.856C183.023 138.32 180.479 135.488 178.655 131.36C176.927 127.232 176.063 121.088 176.063 112.928V73.04H166.415V62.672L176.783 60.656L179.951 40.784H192.767V60.368H209.759V73.328H192.623V113.648C192.623 118.064 192.767 121.28 193.055 123.296C193.439 125.312 194.159 126.608 195.215 127.184C196.367 127.664 198.047 127.904 200.255 127.904C202.463 127.904 204.575 127.808 206.591 127.616C208.607 127.424 209.615 127.328 209.615 127.328V140.864C209.615 140.864 208.511 141.056 206.303 141.44C204.191 141.824 201.455 142.016 198.095 142.016ZM252.798 142.016C248.286 142.016 244.35 141.296 240.99 139.856C237.726 138.32 235.182 135.488 233.358 131.36C231.63 127.232 230.766 121.088 230.766 112.928V73.04H221.118V62.672L231.486 60.656L234.654 40.784H247.47V60.368H264.462V73.328H247.326V113.648C247.326 118.064 247.47 121.28 247.758 123.296C248.142 125.312 248.862 126.608 249.918 127.184C251.07 127.664 252.75 127.904 254.958 127.904C257.166 127.904 259.278 127.808 261.294 127.616C263.31 127.424 264.318 127.328 264.318 127.328V140.864C264.318 140.864 263.214 141.056 261.006 141.44C258.894 141.824 256.158 142.016 252.798 142.016ZM284.029 140V30.992H300.589V140H284.029ZM358.741 142.016C351.541 142.016 345.253 140.576 339.877 137.696C334.501 134.816 330.277 130.16 327.205 123.728C324.229 117.296 322.741 108.656 322.741 97.808C322.741 86.576 324.325 77.792 327.493 71.456C330.661 65.024 334.933 60.464 340.309 57.776C345.685 55.088 351.733 53.744 358.453 53.744C365.269 53.744 371.029 55.04 375.733 57.632C380.533 60.128 384.181 64.304 386.677 70.16C389.173 76.016 390.421 83.84 390.421 93.632V104H339.877C339.781 110.72 340.309 115.664 341.461 118.832C342.709 121.904 344.005 124.016 345.349 125.168C346.501 126.224 347.941 127.04 349.669 127.616C351.397 128.096 353.557 128.336 356.148 128.336C359.797 128.336 363.541 127.952 367.381 127.184C371.221 126.32 374.677 125.456 377.749 124.592C380.821 123.632 382.981 122.96 384.229 122.576L388.405 135.104C387.445 135.584 385.525 136.4 382.645 137.552C379.861 138.608 376.405 139.616 372.277 140.576C368.149 141.536 363.637 142.016 358.741 142.016ZM344.197 72.176C341.509 75.536 340.069 81.968 339.877 91.472L373.429 90.752C373.333 86.048 373.093 82.064 372.709 78.8C372.325 75.44 371.557 72.896 370.405 71.168C369.733 70.208 368.629 69.344 367.093 68.576C365.653 67.808 362.917 67.424 358.885 67.424C354.565 67.424 351.301 67.904 349.093 68.864C346.981 69.728 345.349 70.832 344.197 72.176ZM407.969 141.872C405.377 141.872 402.929 141.632 400.625 141.152C398.321 140.768 396.977 140.576 396.593 140.576L398.321 126.176C399.473 126.368 401.105 126.656 403.217 127.04C405.329 127.328 407.393 127.472 409.409 127.472C411.137 127.472 412.577 127.04 413.729 126.176C414.977 125.312 415.889 123.392 416.465 120.416C417.041 117.44 417.329 112.784 417.329 106.448V39.344H434.177V105.296C434.177 114.416 433.025 121.664 430.721 127.04C428.417 132.32 425.297 136.112 421.361 138.416C417.425 140.72 412.961 141.872 407.969 141.872ZM489.19 141.872C480.55 141.872 473.734 140.096 468.742 136.544C463.846 132.992 460.342 127.952 458.23 121.424C456.118 114.8 455.062 106.976 455.062 97.952C455.062 88.928 456.118 81.152 458.23 74.624C460.342 68 463.846 62.912 468.742 59.36C473.734 55.712 480.55 53.888 489.19 53.888C497.734 53.888 504.454 55.712 509.35 59.36C514.342 62.912 517.846 68 519.862 74.624C521.974 81.152 523.03 88.928 523.03 97.952C523.03 106.976 521.974 114.8 519.862 121.424C517.846 127.952 514.342 132.992 509.35 136.544C504.454 140.096 497.734 141.872 489.19 141.872ZM489.19 128.48C493.51 128.48 496.87 127.712 499.27 126.176C501.766 124.64 503.494 121.664 504.454 117.248C505.51 112.832 506.038 106.4 506.038 97.952C506.038 89.408 505.51 82.928 504.454 78.512C503.494 74.096 501.766 71.12 499.27 69.584C496.774 68.048 493.414 67.28 489.19 67.28C484.774 67.28 481.318 68.048 478.822 69.584C476.326 71.12 474.55 74.096 473.494 78.512C472.438 82.928 471.91 89.408 471.91 97.952C471.91 106.4 472.438 112.832 473.494 117.248C474.55 121.664 476.326 124.64 478.822 126.176C481.318 127.712 484.774 128.48 489.19 128.48ZM547.782 163.904L559.446 132.08L531.942 55.76H549.366L566.79 114.8H567.51L584.79 55.76H602.358L573.558 135.248L565.206 163.904H547.782Z" fill="black"/>
<path fill-rule="evenodd" clip-rule="evenodd" d="M442.789 190.063C389.148 229.601 311.398 250.696 244.457 250.696C150.593 250.696 66.0931 215.979 2.16451 158.24C-2.85703 153.698 1.64298 147.511 7.66975 151.047C76.6605 191.188 161.965 215.336 250.082 215.336C309.509 215.336 374.884 203.041 434.994 177.526C444.075 173.669 451.669 183.473 442.789 190.063" fill="#FF9900"/>
</svg>
